<mxfile host="app.diagrams.net" modified="2024-06-25T16:02:27.230Z" agent="Mozilla/5.0 (Windows NT 10.0; Win64; x64) AppleWebKit/537.36 (KHTML, like Gecko) Chrome/126.0.0.0 Safari/537.36" version="24.6.3" etag="ug2Ts6YiDHZNlchh0KAN" type="github">
  <diagram name="Страница — 1" id="jjWpjD5nKQSm8TlMfTez">
    <mxGraphModel>
      <root>
        <mxCell id="0" />
        <mxCell id="1" parent="0" />
      </root>
    </mxGraphModel>
  </diagram>
</mxfile>
